# xmcd
#
# Track frame offsets: 
#        150
#        10031
#        21814
#        38504
#        49924
#        65649
#        80826
#        94577
#        108572
#        122345
#        137835
#        150530
#
# Disc length: 2142 seconds
#
# Revision: 0
# Processed by: cddbd v1.5.2PL0 Copyright (c) Steve Scherf et al.
# Submitted via: ExactAudioCopy v1.0b3
#
DISCID=92085c0c
DTITLE=Eddie Rivers - Plain Talkin' Man
DYEAR=2013
DGENRE=Country
TTITLE0=Texas Playboy Rag
TTITLE1=A Plain Talkin' Man from the West
TTITLE2=Perdido
TTITLE3=There's a Cloud In My Valley of Sunshine
TTITLE4=San Antonio Blues
TTITLE5=You Old Used to Be
TTITLE6=Tear Drop
TTITLE7=You're There
TTITLE8=Crazy Man Crazy
TTITLE9=I Knew the Moment I Lost You
TTITLE10=Big Solid Gal
TTITLE11=Bud's Bounce
EXTD=
EXTT0=
EXTT1=
EXTT2=
EXTT3=
EXTT4=
EXTT5=
EXTT6=
EXTT7=
EXTT8=
EXTT9=
EXTT10=
EXTT11=
PLAYORDER=
